<svg xmlns="http://www.w3.org/2000/svg" viewBox="0 0 64 64">
  <defs>
    <linearGradient id="bg" x1="0" y1="0" x2="1" y2="1">
      <stop offset="0%" stop-color="#0f766e"/>
      <stop offset="100%" stop-color="#115e59"/>
    </linearGradient>
  </defs>
  <rect x="2" y="2" width="60" height="60" rx="12" fill="url(#bg)"/>
  <path d="M17 23c0-5 4-8 9-8h12c5 0 9 3 9 8v15c0 4-3 7-7 7h-2l4 6h-5l-4-6h-2l-4 6h-5l4-6h-2c-4 0-7-3-7-7V23z" fill="#e2e8f0"/>
  <rect x="22" y="20" width="8" height="7" rx="1.4" fill="#0f766e"/>
  <rect x="34" y="20" width="8" height="7" rx="1.4" fill="#0f766e"/>
  <circle cx="25" cy="37" r="2.2" fill="#0f172a"/>
  <circle cx="39" cy="37" r="2.2" fill="#0f172a"/>
</svg>
